<?xml version="1.0" standalone="no"?>
<!DOCTYPE svg PUBLIC "-//W3C//DTD SVG 20010904//EN"
 "http://www.w3.org/TR/2001/REC-SVG-20010904/DTD/svg10.dtd">
<svg version="1.0" xmlns="http://www.w3.org/2000/svg"
 width="400.000000pt" height="400.000000pt" viewBox="0 0 400.000000 400.000000"
 preserveAspectRatio="xMidYMid meet">
<metadata>
Created by potrace 1.14, written by Peter Selinger 2001-2017
</metadata>
<g transform="translate(0.000000,400.000000) scale(0.100000,-0.100000)"
fill="#000000" stroke="none">
<path d="M185 3071 c-3 -2 -5 -485 -5 -1073 l0 -1068 43 0 c60 -1 339 -1 358
0 17 0 34 40 17 40 -5 0 -6 6 -1 13 11 18 12 36 2 43 -6 3 -5 11 2 20 6 8 7
14 2 14 -5 0 -9 9 -9 20 0 11 3 20 6 20 8 0 5 48 -3 57 -4 3 -2 12 4 20 9 10
8 13 -2 13 -11 0 -11 2 1 10 11 7 11 10 2 10 -8 0 -10 5 -5 13 11 18 12 36 2
43 -6 3 -5 11 2 20 6 8 7 14 2 14 -5 0 -9 9 -9 20 0 11 3 20 6 20 8 0 5 48 -3
57 -4 3 -2 12 4 20 9 9 8 13 0 13 -9 0 -9 5 -1 20 8 15 8 20 -1 20 -8 0 -8 4
1 15 8 10 9 15 1 15 -7 0 -8 8 -1 25 7 17 6 25 -1 25 -8 0 -7 5 1 15 8 10 9
15 1 15 -7 0 -8 8 -1 24 6 17 5 26 -3 30 -8 3 -9 7 -2 13 6 4 10 15 10 23 0
18 83 23 104 6 11 -8 13 -8 8 0 -9 15 165 15 175 0 6 -8 8 -8 8 0 0 7 34 10
100 10 83 -1 100 2 100 14 0 13 1 13 10 0 6 -9 10 -11 10 -3 0 7 7 10 17 6 12
-5 14 -3 8 7 -6 10 -4 10 10 3 24 -14 55 -5 55 16 0 13 2 13 9 2 6 -9 11 -10
15 -3 4 6 13 9 21 6 8 -4 18 1 21 10 5 13 9 14 20 5 11 -9 14 -8 14 1 0 7 7
10 16 6 8 -3 12 -2 9 4 -3 6 1 10 10 10 9 0 14 4 11 9 -4 5 5 8 19 6 14 -1 23
0 20 3 -8 8 16 32 32 32 8 0 25 12 39 28 14 15 29 27 32 27 4 0 6 4 4 8 -1 5
2 6 8 2 13 -8 42 14 34 26 -3 5 -1 9 5 9 6 0 8 7 5 15 -4 9 0 15 7 15 15 1 65
62 60 74 -1 4 6 14 16 23 10 8 12 11 5 8 -11 -6 -12 -3 -3 13 6 12 15 24 21
27 5 3 6 13 3 22 -5 12 -3 14 7 8 10 -6 12 -2 8 19 -3 14 -1 29 4 32 4 3 6 10
3 15 -4 5 0 11 7 14 14 6 18 72 5 93 -5 7 -3 12 3 12 7 0 10 7 7 15 -4 8 -2
17 4 21 6 4 6 11 -2 20 -8 10 -8 14 0 14 6 0 11 8 11 18 0 14 -2 15 -10 2 -6
-10 -8 0 -6 30 1 25 -2 51 -8 59 -8 11 -8 13 0 8 8 -5 12 5 10 31 -1 25 -7 41
-21 49 -11 7 -15 12 -10 13 6 0 11 9 11 19 0 11 -3 18 -7 15 -4 -2 -10 3 -13
12 -4 9 -2 13 5 8 6 -3 4 4 -4 17 -9 13 -16 26 -16 29 1 16 -22 60 -31 60 -6
0 -8 5 -5 10 3 6 -1 10 -9 10 -9 0 -13 7 -11 20 2 13 -2 20 -11 20 -8 0 -14 3
-12 8 5 9 -70 81 -77 74 -5 -6 -9 16 -5 33 1 6 -2 7 -5 3 -10 -10 -65 20 -65
35 0 8 -4 7 -10 -3 -8 -12 -10 -12 -16 3 -4 10 -13 16 -20 13 -8 -3 -14 -1
-14 4 0 6 -7 10 -15 10 -8 0 -15 5 -15 10 0 6 -7 10 -16 10 -9 0 -13 -5 -9
-12 4 -7 0 -5 -8 4 -8 10 -17 15 -20 11 -4 -3 -7 -1 -7 5 0 7 -3 11 -7 11 -28
-5 -63 3 -58 11 4 7 -6 10 -27 9 -18 -2 -44 4 -58 11 -30 17 -52 19 -62 5 -5
-6 -8 -6 -8 2 0 8 -9 9 -30 3 -16 -5 -30 -5 -30 -1 0 9 -56 5 -72 -5 -7 -4 -8
-2 -4 4 5 9 0 9 -18 2 -14 -5 -26 -6 -26 -2 0 8 -84 6 -107 -3 -7 -2 -13 -1
-13 4 0 9 -55 5 -72 -5 -6 -4 -9 -3 -5 2 7 12 -96 11 -105 -1 -5 -6 -8 -5 -8
2 0 9 -7 10 -26 3 -16 -7 -23 -7 -19 0 4 7 -3 7 -19 0 -14 -5 -26 -6 -26 -2 0
8 -84 6 -107 -3 -7 -2 -13 -1 -13 4 0 9 -55 5 -72 -5 -7 -4 -8 -2 -4 4 5 9 0
9 -18 2 -14 -5 -26 -6 -26 -2 0 8 -38 11 -45 3z m482 -325 c18 2 35 -1 38 -7
4 -6 11 -6 18 -1 16 13 49 12 66 -2 10 -7 13 -7 8 0 -7 12 131 13 150 1 6 -4
14 -3 18 2 7 13 46 10 64 -3 11 -8 13 -8 7 2 -10 16 2 15 20 -2 8 -8 23 -13
34 -11 11 2 20 1 20 -3 0 -4 9 -13 21 -20 13 -9 18 -9 14 -2 -4 7 1 7 14 -2
12 -7 21 -18 21 -25 0 -6 5 -15 12 -19 7 -5 8 -3 3 6 -5 9 -4 11 3 6 7 -4 12
-12 12 -17 0 -12 30 -44 30 -32 1 16 24 -33 28 -57 2 -14 7 -26 13 -28 5 -2 9
-10 9 -18 0 -8 6 -14 13 -15 10 0 10 -2 0 -6 -16 -6 -17 -60 -1 -65 13 -5 14
-68 1 -77 -13 -10 -14 -84 0 -93 8 -5 6 -8 -7 -8 -12 0 -16 -5 -12 -16 3 -9 2
-12 -5 -9 -6 4 -9 -1 -7 -11 2 -11 -2 -18 -8 -17 -7 1 -10 -6 -7 -17 3 -11 0
-20 -6 -20 -6 0 -11 -4 -11 -10 0 -5 -16 -25 -35 -44 -19 -20 -35 -33 -35 -30
0 4 -11 -1 -25 -10 -14 -9 -30 -14 -35 -11 -6 3 -10 0 -10 -8 0 -10 -11 -14
-32 -14 -19 1 -32 -4 -31 -10 1 -6 -10 -10 -27 -9 -17 1 -30 -3 -30 -8 0 -7
-3 -8 -8 -1 -8 11 -37 13 -47 3 -4 -4 -17 -3 -30 2 -14 5 -26 5 -34 -3 -8 -8
-11 -8 -11 2 0 10 -3 11 -13 2 -8 -6 -17 -8 -20 -4 -11 10 -77 9 -77 -2 0 -7
-3 -7 -8 0 -7 11 -37 13 -46 4 -9 -9 -76 2 -76 13 0 5 -5 6 -11 2 -8 -4 -8 0
0 15 8 14 8 21 1 21 -7 0 -8 6 0 19 7 13 7 22 0 26 -7 4 -7 13 0 26 8 14 7 19
-1 19 -8 0 -8 4 1 15 10 12 10 15 0 15 -10 0 -10 3 0 15 9 11 9 15 1 15 -7 0
-9 5 -4 13 10 16 13 37 4 37 -4 0 -7 9 -7 20 0 11 3 20 6 20 8 0 5 48 -3 57
-4 3 -2 12 4 20 9 10 8 13 -2 13 -11 0 -11 2 1 10 11 7 11 10 2 10 -8 0 -10 5
-5 13 11 18 12 36 2 43 -6 3 -5 11 2 20 6 8 7 14 2 14 -5 0 -9 9 -9 20 0 11 3
20 6 20 8 0 5 48 -3 57 -4 3 -2 12 4 20 9 10 8 13 -2 13 -11 0 -11 2 1 10 11
7 11 10 2 10 -8 0 -10 5 -5 13 11 17 11 30 0 45 -6 8 -6 12 1 12 6 0 9 9 7 20
-3 16 -1 18 13 11 9 -5 31 -7 49 -5z m873 -840 c0 -3 -4 -8 -10 -11 -5 -3 -10
-1 -10 4 0 6 5 11 10 11 6 0 10 -2 10 -4z"/>
<path d="M2050 3072 c0 -5 -10 -8 -21 -8 -19 1 -22 -5 -24 -46 -1 -29 2 -45 8
-41 6 4 7 1 2 -7 -10 -16 -12 -510 -2 -517 4 -2 5 -9 1 -14 -11 -18 -12 -109
-1 -102 6 4 7 1 2 -7 -10 -16 -12 -510 -2 -517 4 -2 5 -9 1 -14 -10 -16 -12
-109 -3 -103 5 3 6 -5 1 -18 -10 -31 -8 -301 3 -318 5 -7 4 -11 -1 -8 -5 4 -9
-26 -9 -67 0 -41 4 -71 9 -68 5 4 6 0 1 -6 -4 -7 -8 -70 -9 -139 -1 -95 2
-129 13 -140 11 -11 15 -11 22 0 5 7 9 9 9 3 0 -5 23 -10 50 -10 28 0 50 3 50
7 0 4 6 5 14 2 8 -3 51 -6 95 -7 59 -2 81 1 81 11 0 6 4 12 8 12 12 0 9 80 -3
80 -7 0 -7 3 0 8 11 8 14 72 4 72 -4 0 -3 18 1 39 4 25 3 44 -3 50 -6 6 -7 11
-2 11 11 0 11 133 0 149 -3 6 -3 11 2 11 10 0 9 82 -1 98 -4 7 -4 12 1 12 9 0
8 103 -1 119 -4 6 -4 11 1 11 10 0 9 82 -1 98 -4 7 -4 12 1 12 10 0 9 52 -1
68 -4 7 -4 12 1 12 9 0 8 103 -1 119 -4 6 -4 11 1 11 10 0 9 82 -1 98 -4 7 -4
12 1 12 10 0 9 52 -1 68 -4 7 -4 12 1 12 9 0 8 103 -1 119 -4 6 -4 11 1 11 4
0 7 29 7 65 -1 36 2 65 7 65 5 0 9 -5 9 -11 0 -5 3 -8 8 -6 4 3 16 -7 27 -22
12 -16 14 -22 4 -16 -8 6 -6 2 4 -7 11 -10 16 -18 13 -18 -4 0 7 -13 23 -29
16 -16 27 -32 24 -35 -4 -3 -1 -6 5 -6 7 0 12 -10 12 -22 0 -19 2 -20 10 -8 6
10 10 11 10 3 0 -15 42 -59 52 -56 5 2 7 0 7 -5 -4 -24 2 -52 11 -47 6 3 10
-1 10 -9 0 -10 9 -16 23 -17 12 0 17 -3 10 -6 -8 -3 -3 -13 15 -30 15 -14 18
-19 8 -12 -18 13 -18 13 -6 -8 8 -12 18 -19 22 -17 4 3 8 -2 8 -11 0 -10 5
-13 12 -9 8 5 9 2 5 -10 -4 -9 -3 -15 2 -12 4 3 17 -4 27 -16 12 -14 14 -18 4
-13 -13 8 -13 6 -1 -8 7 -9 17 -15 21 -12 5 3 6 -5 3 -17 -3 -17 -2 -19 5 -9
8 11 11 9 17 -8 3 -11 11 -21 16 -21 6 0 7 -4 4 -10 -3 -5 -1 -10 5 -10 6 0 8
-4 5 -10 -3 -5 -1 -10 5 -10 6 0 8 -5 4 -12 -4 -7 -3 -8 5 -4 6 4 14 0 17 -8
3 -9 13 -16 21 -16 8 0 11 -4 8 -10 -3 -5 -1 -10 4 -10 6 0 11 -7 11 -15 0
-19 31 -55 42 -49 5 3 7 0 6 -8 -2 -7 3 -12 11 -10 9 2 12 -4 8 -18 -3 -13 0
-20 10 -20 8 0 12 -4 9 -8 -3 -5 4 -15 15 -22 10 -8 19 -20 19 -28 0 -7 3 -11
8 -9 11 7 29 -17 26 -36 -1 -9 4 -17 11 -17 7 0 15 -10 18 -21 4 -16 11 -20
24 -15 9 4 14 4 10 0 -4 -4 0 -16 10 -26 9 -10 13 -21 10 -24 -7 -7 17 -34 31
-34 12 0 33 -24 36 -42 6 -29 19 -48 37 -53 10 -4 19 -11 19 -17 0 -6 8 -17
18 -25 11 -9 12 -12 2 -8 -8 4 -4 -3 10 -15 14 -12 18 -19 10 -15 -8 4 -5 -2
7 -13 12 -11 19 -23 15 -27 -4 -3 -2 -6 3 -5 22 5 31 -1 32 -20 2 -23 27 -52
37 -43 3 4 6 -1 6 -11 0 -9 7 -19 15 -22 8 -4 12 -10 9 -15 -3 -5 0 -9 5 -9 6
0 11 -7 11 -15 0 -8 5 -15 10 -15 6 0 10 -7 10 -16 0 -8 5 -12 10 -9 6 3 10
-1 10 -9 0 -9 4 -15 9 -14 5 2 19 -8 32 -22 23 -24 79 -36 79 -17 0 5 7 3 17
-4 13 -11 17 -11 21 -1 3 10 7 10 18 1 11 -9 14 -9 14 0 0 7 5 9 14 4 8 -4 46
-6 86 -5 58 3 69 6 60 17 -8 10 -8 15 1 21 8 4 9 3 5 -4 -4 -7 -2 -12 3 -12
16 0 13 16 -4 33 -12 13 -12 16 -1 20 17 7 14 56 -4 67 -9 5 -8 9 3 13 18 7
16 55 -3 67 -9 5 -8 9 3 13 18 7 16 55 -3 67 -9 5 -8 9 3 13 18 7 16 55 -3 67
-9 5 -8 9 3 13 18 7 16 55 -3 67 -10 6 -10 8 0 12 8 2 14 12 16 21 1 9 -2 15
-7 11 -5 -3 -6 -10 -3 -16 4 -6 2 -8 -4 -5 -5 4 -8 16 -5 27 3 11 8 18 12 15
4 -2 7 9 7 25 0 16 -3 27 -8 24 -4 -3 -8 -1 -8 5 0 5 5 13 10 16 8 5 8 11 1
19 -6 7 -8 15 -6 18 10 10 14 49 4 43 -5 -4 -9 -3 -10 2 0 4 -2 18 -3 30 -1
12 1 20 6 17 5 -4 7 -13 3 -22 -3 -9 -2 -13 2 -8 10 10 11 56 1 50 -4 -3 -8 2
-8 11 0 9 4 14 8 11 5 -3 8 8 8 24 0 16 -3 27 -8 24 -4 -3 -8 -1 -8 5 0 5 5
13 10 16 8 5 8 11 1 19 -6 7 -8 15 -6 18 10 10 14 49 4 43 -5 -4 -9 -3 -10 2
0 4 -2 18 -3 30 -1 12 1 20 6 17 5 -4 7 -13 3 -22 -3 -9 -2 -13 2 -8 10 10 11
56 1 50 -4 -3 -8 2 -8 11 0 9 4 14 8 11 5 -3 8 8 8 24 0 16 -3 27 -8 24 -4 -3
-8 -1 -8 5 0 5 5 13 10 16 8 5 8 11 1 19 -6 7 -8 15 -6 18 10 10 14 49 4 43
-5 -4 -9 -3 -10 2 0 4 -2 18 -3 30 -1 12 1 20 6 17 5 -4 7 -13 3 -22 -3 -9 -2
-13 2 -8 10 10 11 56 1 50 -4 -3 -8 2 -8 11 0 9 4 14 8 11 5 -3 8 8 8 24 0 16
-3 27 -8 24 -4 -3 -8 -1 -8 5 0 5 5 13 10 16 8 5 8 11 1 19 -6 7 -8 15 -6 18
10 10 14 49 4 43 -5 -4 -9 -3 -10 2 0 4 -2 18 -3 30 -1 12 1 20 6 17 5 -4 7
-13 3 -22 -3 -9 -2 -13 2 -8 10 10 11 56 1 50 -4 -3 -8 2 -8 11 0 9 4 14 8 11
5 -3 8 8 8 24 0 16 -3 27 -8 24 -4 -3 -8 -1 -8 5 0 5 5 13 10 16 8 5 8 11 1
19 -6 7 -8 15 -6 18 10 10 14 49 4 43 -5 -4 -9 -3 -10 2 0 4 -2 18 -3 30 -1
12 1 20 6 17 5 -4 7 -13 3 -22 -3 -9 -2 -13 2 -8 10 10 11 56 1 50 -4 -3 -8 2
-8 11 0 9 4 14 8 11 5 -3 8 8 8 24 0 16 -3 27 -8 24 -4 -3 -8 4 -8 16 0 12 4
19 8 16 5 -3 8 8 8 24 0 16 -3 27 -8 24 -4 -3 -8 -1 -8 5 0 5 5 13 10 16 8 5
8 11 1 19 -6 7 -8 15 -6 18 10 10 14 49 4 43 -5 -4 -9 -3 -10 2 0 4 -2 18 -3
30 -1 12 1 20 6 17 5 -4 7 -13 3 -22 -3 -9 -2 -13 2 -8 10 10 11 56 1 50 -4
-3 -8 2 -8 11 0 9 4 14 8 11 5 -3 8 8 8 24 0 16 -3 27 -8 24 -8 -5 -12 10 -8
35 1 9 -4 12 -15 7 -9 -3 -14 -2 -11 3 8 12 -78 8 -86 -4 -5 -6 -8 -5 -8 2 0
9 -7 10 -26 3 -16 -7 -23 -7 -19 0 4 7 -3 7 -19 0 -14 -5 -26 -6 -26 -2 0 8
-74 6 -98 -3 -7 -3 -10 0 -7 5 8 13 3 13 -30 0 -15 -6 -23 -15 -19 -21 3 -6 0
-15 -7 -20 -8 -5 -9 -9 -3 -9 11 0 10 -48 -1 -78 -3 -7 0 -10 5 -7 6 3 10 2
10 -4 0 -5 -5 -13 -10 -16 -8 -5 -7 -12 1 -22 10 -12 10 -16 -2 -24 -8 -5 -9
-9 -3 -9 11 0 10 -48 -1 -78 -3 -7 0 -10 5 -7 6 3 10 2 10 -4 0 -5 -5 -13 -10
-16 -8 -5 -7 -12 1 -22 10 -12 10 -16 -2 -24 -8 -5 -9 -9 -3 -9 11 0 10 -48
-1 -78 -3 -7 0 -10 5 -7 6 3 10 2 10 -4 0 -5 -5 -13 -10 -16 -8 -5 -7 -12 1
-22 10 -12 10 -16 -2 -24 -8 -5 -9 -9 -3 -9 11 0 10 -48 -1 -78 -3 -7 0 -10 5
-7 6 3 10 2 10 -4 0 -5 -5 -13 -10 -16 -6 -4 -7 -12 -3 -18 11 -18 9 -261 -2
-269 -7 -5 -6 -8 0 -8 12 0 11 -92 -1 -111 -4 -7 -3 -10 2 -6 7 4 8 -128 3
-328 0 -5 2 -22 4 -37 3 -17 -1 -29 -9 -32 -8 -3 -14 1 -14 9 0 8 -8 15 -17
15 -14 0 -15 2 -5 9 10 6 10 10 -2 21 -9 7 -13 17 -9 23 3 5 1 7 -4 4 -13 -8
-46 27 -36 37 5 4 2 6 -6 4 -7 -1 -15 5 -16 14 -4 21 -30 49 -39 41 -3 -4 -6
-1 -6 6 0 7 -10 21 -22 32 -13 10 -17 18 -10 19 7 0 -8 20 -33 45 -25 25 -45
50 -45 54 0 5 -18 28 -41 52 -26 28 -36 44 -29 49 7 5 4 9 -10 13 -12 3 -19
10 -16 15 3 5 -4 12 -17 16 -18 5 -20 8 -7 16 12 8 10 10 -9 10 -17 0 -22 4
-17 16 3 8 2 13 -3 10 -5 -3 -12 1 -15 10 -4 10 -2 13 6 8 7 -4 8 -3 4 4 -4 7
-13 12 -21 12 -8 0 -17 5 -21 12 -5 7 -2 9 7 4 8 -4 5 -1 -5 8 -10 8 -23 13
-29 9 -6 -3 -7 -1 -3 5 9 15 -14 62 -31 62 -8 0 -11 5 -8 10 3 6 -1 10 -10 10
-9 0 -13 5 -10 10 3 6 0 10 -8 10 -7 0 -14 7 -15 15 -1 8 -3 21 -4 29 -1 8 -4
15 -7 14 -18 -2 -32 3 -28 10 6 10 -30 42 -39 34 -5 -4 -3 0 4 10 11 14 10 17
-7 23 -11 3 -20 9 -18 13 3 11 -50 62 -56 55 -3 -3 -3 4 0 16 4 15 1 21 -11
21 -9 0 -15 3 -15 8 3 20 -3 31 -21 37 -11 3 -20 13 -20 21 0 8 -6 14 -12 14
-9 0 -8 4 2 10 8 5 10 10 4 10 -19 0 -69 53 -83 88 -9 21 -20 32 -35 33 -11 0
-15 3 -8 6 10 4 8 9 -5 22 -10 9 -23 25 -30 36 -6 11 -16 19 -23 17 -6 -1 -9
2 -5 7 3 6 -6 20 -20 33 -14 12 -25 28 -25 36 0 17 -25 43 -34 35 -3 -4 -6 -1
-6 5 0 18 -46 62 -65 62 -12 0 -15 5 -11 16 5 14 4 15 -9 4 -10 -8 -15 -9 -15
-1 0 6 -5 11 -11 11 -5 0 -7 -5 -3 -12 4 -7 3 -8 -5 -4 -18 12 -61 15 -61 5 0
-5 -5 -9 -11 -9 -5 0 -8 3 -6 8 3 4 -10 7 -29 7 -19 0 -34 -4 -34 -8 0 -4 -9
-3 -20 3 -11 6 -20 7 -20 2z m1760 -72 c0 -5 -2 -10 -4 -10 -3 0 -8 5 -11 10
-3 6 -1 10 4 10 6 0 11 -4 11 -10z m0 -240 c0 -5 -2 -10 -4 -10 -3 0 -8 5 -11
10 -3 6 -1 10 4 10 6 0 11 -4 11 -10z m0 -80 c0 -5 -2 -10 -4 -10 -3 0 -8 5
-11 10 -3 6 -1 10 4 10 6 0 11 -4 11 -10z m0 -240 c0 -5 -2 -10 -4 -10 -3 0
-8 5 -11 10 -3 6 -1 10 4 10 6 0 11 -4 11 -10z m0 -240 c0 -5 -2 -10 -4 -10
-3 0 -8 5 -11 10 -3 6 -1 10 4 10 6 0 11 -4 11 -10z m0 -240 c0 -5 -2 -10 -4
-10 -3 0 -8 5 -11 10 -3 6 -1 10 4 10 6 0 11 -4 11 -10z m0 -240 c0 -5 -2 -10
-4 -10 -3 0 -8 5 -11 10 -3 6 -1 10 4 10 6 0 11 -4 11 -10z m0 -240 c0 -5 -2
-10 -4 -10 -3 0 -8 5 -11 10 -3 6 -1 10 4 10 6 0 11 -4 11 -10z m-3 -129 c0
-11 -5 -18 -9 -15 -4 3 -5 11 -1 19 7 21 12 19 10 -4z m0 -80 c0 -11 -5 -18
-9 -15 -4 3 -5 11 -1 19 7 21 12 19 10 -4z m0 -80 c0 -11 -5 -18 -9 -15 -4 3
-5 11 -1 19 7 21 12 19 10 -4z m0 -80 c0 -11 -5 -18 -9 -15 -4 3 -5 11 -1 19
7 21 12 19 10 -4z m0 -80 c0 -11 -5 -18 -9 -15 -4 3 -5 11 -1 19 7 21 12 19
10 -4z"/>
</g>
</svg>
