<svg id="visual" viewBox="0 0 900 1250" width="900" height="1250" xmlns="http://www.w3.org/2000/svg" xmlns:xlink="http://www.w3.org/1999/xlink" version="1.1"><g stroke-width="1" stroke-linejoin="bevel"><path d="M405 651.1L378 550.9L319 644.1Z" fill="#696969" stroke="#696969"></path><path d="M378 550.9L307 572.9L319 644.1Z" fill="#555555" stroke="#555555"></path><path d="M405 651.1L494 558.9L378 550.9Z" fill="#1f1f1f" stroke="#1f1f1f"></path><path d="M210 484.8L221 595.9L307 572.9Z" fill="#171717" stroke="#171717"></path><path d="M307 572.9L221 595.9L319 644.1Z" fill="#303030" stroke="#303030"></path><path d="M494 558.9L434 473.8L378 550.9Z" fill="#1f1f1f" stroke="#1f1f1f"></path><path d="M378 550.9L306 449.8L307 572.9Z" fill="#424242" stroke="#424242"></path><path d="M319 644.1L437 751.2L405 651.1Z" fill="#272727" stroke="#272727"></path><path d="M405 651.1L507 686.1L494 558.9Z" fill="#737373" stroke="#737373"></path><path d="M331 832.4L437 751.2L319 644.1Z" fill="#303030" stroke="#303030"></path><path d="M475 744.2L507 686.1L405 651.1Z" fill="#272727" stroke="#272727"></path><path d="M434 473.8L306 449.8L378 550.9Z" fill="#737373" stroke="#737373"></path><path d="M437 751.2L475 744.2L405 651.1Z" fill="#4b4b4b" stroke="#4b4b4b"></path><path d="M494 558.9L479 456.8L434 473.8Z" fill="#171717" stroke="#171717"></path><path d="M434 473.8L374 370.6L306 449.8Z" fill="#171717" stroke="#171717"></path><path d="M507 686.1L560 572.9L494 558.9Z" fill="#737373" stroke="#737373"></path><path d="M494 558.9L560 572.9L479 456.8Z" fill="#303030" stroke="#303030"></path><path d="M306 449.8L210 484.8L307 572.9Z" fill="#737373" stroke="#737373"></path><path d="M111 613.9L180 684.1L221 595.9Z" fill="#424242" stroke="#424242"></path><path d="M221 595.9L180 684.1L319 644.1Z" fill="#171717" stroke="#171717"></path><path d="M180 684.1L260 800.2L319 644.1Z" fill="#1f1f1f" stroke="#1f1f1f"></path><path d="M437 751.2L520 834.4L475 744.2Z" fill="#393939" stroke="#393939"></path><path d="M260 800.2L331 832.4L319 644.1Z" fill="#1f1f1f" stroke="#1f1f1f"></path><path d="M623 502.8L483 402.6L479 456.8Z" fill="#696969" stroke="#696969"></path><path d="M479 456.8L483 402.6L434 473.8Z" fill="#555555" stroke="#555555"></path><path d="M483 402.6L374 370.6L434 473.8Z" fill="#737373" stroke="#737373"></path><path d="M306 449.8L193 374.6L210 484.8Z" fill="#272727" stroke="#272727"></path><path d="M331 832.4L378 846.4L437 751.2Z" fill="#303030" stroke="#303030"></path><path d="M374 370.6L294 367.6L306 449.8Z" fill="#4b4b4b" stroke="#4b4b4b"></path><path d="M105 498.8L111 613.9L221 595.9Z" fill="#393939" stroke="#393939"></path><path d="M180 684.1L182 792.2L260 800.2Z" fill="#171717" stroke="#171717"></path><path d="M105 498.8L221 595.9L210 484.8Z" fill="#171717" stroke="#171717"></path><path d="M139 806.2L182 792.2L180 684.1Z" fill="#272727" stroke="#272727"></path><path d="M260 800.2L222 966.5L331 832.4Z" fill="#737373" stroke="#737373"></path><path d="M335 951.5L427 927.5L378 846.4Z" fill="#737373" stroke="#737373"></path><path d="M620 730.2L625 708.1L507 686.1Z" fill="#393939" stroke="#393939"></path><path d="M507 686.1L625 708.1L560 572.9Z" fill="#4b4b4b" stroke="#4b4b4b"></path><path d="M378 846.4L520 834.4L437 751.2Z" fill="#696969" stroke="#696969"></path><path d="M620 730.2L507 686.1L475 744.2Z" fill="#303030" stroke="#303030"></path><path d="M560 572.9L623 502.8L479 456.8Z" fill="#303030" stroke="#303030"></path><path d="M697 557.9L623 502.8L560 572.9Z" fill="#171717" stroke="#171717"></path><path d="M193 374.6L105 498.8L210 484.8Z" fill="#424242" stroke="#424242"></path><path d="M520 834.4L620 730.2L475 744.2Z" fill="#424242" stroke="#424242"></path><path d="M0 637.1L87 687.1L111 613.9Z" fill="#4b4b4b" stroke="#4b4b4b"></path><path d="M111 613.9L87 687.1L180 684.1Z" fill="#555555" stroke="#555555"></path><path d="M294 367.6L193 374.6L306 449.8Z" fill="#555555" stroke="#555555"></path><path d="M87 687.1L139 806.2L180 684.1Z" fill="#272727" stroke="#272727"></path><path d="M182 792.2L177 864.4L260 800.2Z" fill="#555555" stroke="#555555"></path><path d="M374 370.6L275 303.5L294 367.6Z" fill="#555555" stroke="#555555"></path><path d="M294 367.6L275 303.5L193 374.6Z" fill="#737373" stroke="#737373"></path><path d="M397 291.5L275 303.5L374 370.6Z" fill="#737373" stroke="#737373"></path><path d="M139 806.2L177 864.4L182 792.2Z" fill="#424242" stroke="#424242"></path><path d="M561 997.5L593 837.4L520 834.4Z" fill="#303030" stroke="#303030"></path><path d="M503 278.5L397 291.5L483 402.6Z" fill="#393939" stroke="#393939"></path><path d="M483 402.6L397 291.5L374 370.6Z" fill="#737373" stroke="#737373"></path><path d="M427 927.5L520 834.4L378 846.4Z" fill="#272727" stroke="#272727"></path><path d="M520 834.4L593 837.4L620 730.2Z" fill="#272727" stroke="#272727"></path><path d="M335 951.5L378 846.4L331 832.4Z" fill="#696969" stroke="#696969"></path><path d="M625 708.1L697 557.9L560 572.9Z" fill="#737373" stroke="#737373"></path><path d="M623 359.6L503 278.5L483 402.6Z" fill="#1f1f1f" stroke="#1f1f1f"></path><path d="M737 707.1L697 557.9L625 708.1Z" fill="#424242" stroke="#424242"></path><path d="M737 707.1L625 708.1L620 730.2Z" fill="#303030" stroke="#303030"></path><path d="M427 927.5L469 931.5L520 834.4Z" fill="#4b4b4b" stroke="#4b4b4b"></path><path d="M222 966.5L335 951.5L331 832.4Z" fill="#4b4b4b" stroke="#4b4b4b"></path><path d="M489 1094.7L561 997.5L469 931.5Z" fill="#171717" stroke="#171717"></path><path d="M100 290.5L71 421.6L193 374.6Z" fill="#737373" stroke="#737373"></path><path d="M193 374.6L71 421.6L105 498.8Z" fill="#4b4b4b" stroke="#4b4b4b"></path><path d="M0 549.9L0 637.1L111 613.9Z" fill="#696969" stroke="#696969"></path><path d="M663 886.4L668 792.2L593 837.4Z" fill="#4b4b4b" stroke="#4b4b4b"></path><path d="M593 837.4L668 792.2L620 730.2Z" fill="#1f1f1f" stroke="#1f1f1f"></path><path d="M623 359.6L483 402.6L623 502.8Z" fill="#555555" stroke="#555555"></path><path d="M336 210.3L216 259.5L275 303.5Z" fill="#303030" stroke="#303030"></path><path d="M690 422.6L623 359.6L623 502.8Z" fill="#1f1f1f" stroke="#1f1f1f"></path><path d="M0 549.9L111 613.9L105 498.8Z" fill="#4b4b4b" stroke="#4b4b4b"></path><path d="M0 871.4L121 887.4L139 806.2Z" fill="#1f1f1f" stroke="#1f1f1f"></path><path d="M139 806.2L121 887.4L177 864.4Z" fill="#696969" stroke="#696969"></path><path d="M0 500.8L0 549.9L105 498.8Z" fill="#4b4b4b" stroke="#4b4b4b"></path><path d="M0 743.2L139 806.2L87 687.1Z" fill="#696969" stroke="#696969"></path><path d="M177 864.4L222 966.5L260 800.2Z" fill="#303030" stroke="#303030"></path><path d="M736 456.8L690 422.6L623 502.8Z" fill="#272727" stroke="#272727"></path><path d="M336 210.3L275 303.5L397 291.5Z" fill="#303030" stroke="#303030"></path><path d="M275 303.5L216 259.5L193 374.6Z" fill="#696969" stroke="#696969"></path><path d="M71 421.6L0 500.8L105 498.8Z" fill="#303030" stroke="#303030"></path><path d="M0 366.6L0 500.8L71 421.6Z" fill="#737373" stroke="#737373"></path><path d="M668 792.2L737 707.1L620 730.2Z" fill="#5f5f5f" stroke="#5f5f5f"></path><path d="M697 557.9L736 456.8L623 502.8Z" fill="#424242" stroke="#424242"></path><path d="M130 971.5L222 966.5L177 864.4Z" fill="#696969" stroke="#696969"></path><path d="M0 637.1L0 743.2L87 687.1Z" fill="#303030" stroke="#303030"></path><path d="M503 278.5L397 218.3L397 291.5Z" fill="#555555" stroke="#555555"></path><path d="M397 218.3L336 210.3L397 291.5Z" fill="#393939" stroke="#393939"></path><path d="M666 284.5L594 280.5L623 359.6Z" fill="#4b4b4b" stroke="#4b4b4b"></path><path d="M623 359.6L594 280.5L503 278.5Z" fill="#272727" stroke="#272727"></path><path d="M503 278.5L530 187.3L397 218.3Z" fill="#424242" stroke="#424242"></path><path d="M771 470.8L736 456.8L697 557.9Z" fill="#4b4b4b" stroke="#4b4b4b"></path><path d="M766 344.6L666 284.5L623 359.6Z" fill="#171717" stroke="#171717"></path><path d="M561 997.5L663 886.4L593 837.4Z" fill="#4b4b4b" stroke="#4b4b4b"></path><path d="M668 792.2L769 753.2L737 707.1Z" fill="#393939" stroke="#393939"></path><path d="M134 225.3L100 290.5L216 259.5Z" fill="#5f5f5f" stroke="#5f5f5f"></path><path d="M216 259.5L100 290.5L193 374.6Z" fill="#424242" stroke="#424242"></path><path d="M287 128.2L188 224.3L216 259.5Z" fill="#696969" stroke="#696969"></path><path d="M803 574.9L771 470.8L697 557.9Z" fill="#272727" stroke="#272727"></path><path d="M766 344.6L623 359.6L690 422.6Z" fill="#737373" stroke="#737373"></path><path d="M816 855.4L769 753.2L668 792.2Z" fill="#424242" stroke="#424242"></path><path d="M737 707.1L798 659.1L697 557.9Z" fill="#737373" stroke="#737373"></path><path d="M0 941.5L130 971.5L121 887.4Z" fill="#424242" stroke="#424242"></path><path d="M121 887.4L130 971.5L177 864.4Z" fill="#1f1f1f" stroke="#1f1f1f"></path><path d="M769 753.2L798 659.1L737 707.1Z" fill="#171717" stroke="#171717"></path><path d="M469 931.5L561 997.5L520 834.4Z" fill="#393939" stroke="#393939"></path><path d="M387 1088.7L469 931.5L427 927.5Z" fill="#272727" stroke="#272727"></path><path d="M387 1088.7L427 927.5L335 951.5Z" fill="#555555" stroke="#555555"></path><path d="M293 1057.7L335 951.5L222 966.5Z" fill="#5f5f5f" stroke="#5f5f5f"></path><path d="M100 290.5L0 366.6L71 421.6Z" fill="#303030" stroke="#303030"></path><path d="M798 659.1L803 574.9L697 557.9Z" fill="#424242" stroke="#424242"></path><path d="M766 344.6L690 422.6L736 456.8Z" fill="#171717" stroke="#171717"></path><path d="M594 280.5L530 187.3L503 278.5Z" fill="#5f5f5f" stroke="#5f5f5f"></path><path d="M188 224.3L134 225.3L216 259.5Z" fill="#696969" stroke="#696969"></path><path d="M100 290.5L0 318.5L0 366.6Z" fill="#303030" stroke="#303030"></path><path d="M167 103.2L134 225.3L188 224.3Z" fill="#303030" stroke="#303030"></path><path d="M0 743.2L0 871.4L139 806.2Z" fill="#4b4b4b" stroke="#4b4b4b"></path><path d="M595 201.3L530 187.3L594 280.5Z" fill="#171717" stroke="#171717"></path><path d="M392 59.2L287 128.2L336 210.3Z" fill="#393939" stroke="#393939"></path><path d="M336 210.3L287 128.2L216 259.5Z" fill="#171717" stroke="#171717"></path><path d="M193 1034.7L293 1057.7L222 966.5Z" fill="#555555" stroke="#555555"></path><path d="M130 971.5L193 1034.7L222 966.5Z" fill="#737373" stroke="#737373"></path><path d="M87 1071.7L193 1034.7L130 971.5Z" fill="#737373" stroke="#737373"></path><path d="M0 193.3L0 318.5L100 290.5Z" fill="#555555" stroke="#555555"></path><path d="M666 284.5L595 201.3L594 280.5Z" fill="#171717" stroke="#171717"></path><path d="M771 470.8L766 344.6L736 456.8Z" fill="#1f1f1f" stroke="#1f1f1f"></path><path d="M666 284.5L688 213.3L595 201.3Z" fill="#393939" stroke="#393939"></path><path d="M900 387.6L766 344.6L771 470.8Z" fill="#696969" stroke="#696969"></path><path d="M282 1123.8L387 1088.7L293 1057.7Z" fill="#393939" stroke="#393939"></path><path d="M293 1057.7L387 1088.7L335 951.5Z" fill="#5f5f5f" stroke="#5f5f5f"></path><path d="M611 1090.7L692 964.5L561 997.5Z" fill="#737373" stroke="#737373"></path><path d="M561 997.5L692 964.5L663 886.4Z" fill="#393939" stroke="#393939"></path><path d="M663 886.4L816 855.4L668 792.2Z" fill="#303030" stroke="#303030"></path><path d="M500 133.2L397 218.3L530 187.3Z" fill="#272727" stroke="#272727"></path><path d="M392 59.2L336 210.3L397 218.3Z" fill="#424242" stroke="#424242"></path><path d="M576 107.2L500 133.2L530 187.3Z" fill="#272727" stroke="#272727"></path><path d="M0 871.4L0 941.5L121 887.4Z" fill="#1f1f1f" stroke="#1f1f1f"></path><path d="M387 1088.7L489 1094.7L469 931.5Z" fill="#5f5f5f" stroke="#5f5f5f"></path><path d="M810 263.5L688 213.3L666 284.5Z" fill="#5f5f5f" stroke="#5f5f5f"></path><path d="M595 201.3L576 107.2L530 187.3Z" fill="#393939" stroke="#393939"></path><path d="M692 964.5L816 855.4L663 886.4Z" fill="#1f1f1f" stroke="#1f1f1f"></path><path d="M900 697.1L900 601.9L798 659.1Z" fill="#737373" stroke="#737373"></path><path d="M798 659.1L900 601.9L803 574.9Z" fill="#4b4b4b" stroke="#4b4b4b"></path><path d="M180 1116.8L282 1123.8L193 1034.7Z" fill="#303030" stroke="#303030"></path><path d="M193 1034.7L282 1123.8L293 1057.7Z" fill="#555555" stroke="#555555"></path><path d="M387 1088.7L400 1156.8L489 1094.7Z" fill="#5f5f5f" stroke="#5f5f5f"></path><path d="M900 697.1L798 659.1L769 753.2Z" fill="#5f5f5f" stroke="#5f5f5f"></path><path d="M803 574.9L900 470.8L771 470.8Z" fill="#696969" stroke="#696969"></path><path d="M0 941.5L87 1071.7L130 971.5Z" fill="#393939" stroke="#393939"></path><path d="M87 1071.7L180 1116.8L193 1034.7Z" fill="#171717" stroke="#171717"></path><path d="M692 964.5L835 956.5L816 855.4Z" fill="#555555" stroke="#555555"></path><path d="M489 1094.7L611 1090.7L561 997.5Z" fill="#393939" stroke="#393939"></path><path d="M601 1145.8L611 1090.7L489 1094.7Z" fill="#171717" stroke="#171717"></path><path d="M900 799.2L900 697.1L769 753.2Z" fill="#424242" stroke="#424242"></path><path d="M195 0L167 103.2L287 128.2Z" fill="#272727" stroke="#272727"></path><path d="M287 128.2L167 103.2L188 224.3Z" fill="#393939" stroke="#393939"></path><path d="M134 225.3L0 193.3L100 290.5Z" fill="#5f5f5f" stroke="#5f5f5f"></path><path d="M688 213.3L576 107.2L595 201.3Z" fill="#171717" stroke="#171717"></path><path d="M500 133.2L392 59.2L397 218.3Z" fill="#737373" stroke="#737373"></path><path d="M418 0L392 59.2L482 0Z" fill="#1f1f1f" stroke="#1f1f1f"></path><path d="M374 1250L400 1156.8L307 1250Z" fill="#272727" stroke="#272727"></path><path d="M282 1123.8L400 1156.8L387 1088.7Z" fill="#171717" stroke="#171717"></path><path d="M900 601.9L900 470.8L803 574.9Z" fill="#424242" stroke="#424242"></path><path d="M766 344.6L810 263.5L666 284.5Z" fill="#4b4b4b" stroke="#4b4b4b"></path><path d="M97 69.2L0 193.3L134 225.3Z" fill="#171717" stroke="#171717"></path><path d="M900 288.5L810 263.5L766 344.6Z" fill="#393939" stroke="#393939"></path><path d="M688 213.3L716 79.2L576 107.2Z" fill="#737373" stroke="#737373"></path><path d="M816 855.4L900 799.2L769 753.2Z" fill="#303030" stroke="#303030"></path><path d="M900 867.4L900 799.2L816 855.4Z" fill="#5f5f5f" stroke="#5f5f5f"></path><path d="M400 1156.8L513 1165.8L489 1094.7Z" fill="#555555" stroke="#555555"></path><path d="M900 470.8L900 387.6L771 470.8Z" fill="#737373" stroke="#737373"></path><path d="M900 166.3L795 215.3L810 263.5Z" fill="#424242" stroke="#424242"></path><path d="M810 263.5L795 215.3L688 213.3Z" fill="#303030" stroke="#303030"></path><path d="M710 1082.7L692 964.5L611 1090.7Z" fill="#303030" stroke="#303030"></path><path d="M831 1019.7L835 956.5L692 964.5Z" fill="#696969" stroke="#696969"></path><path d="M713 1148.8L710 1082.7L611 1090.7Z" fill="#555555" stroke="#555555"></path><path d="M513 1165.8L601 1145.8L489 1094.7Z" fill="#5f5f5f" stroke="#5f5f5f"></path><path d="M87 1071.7L110 1142.8L180 1116.8Z" fill="#171717" stroke="#171717"></path><path d="M307 1250L400 1156.8L282 1123.8Z" fill="#393939" stroke="#393939"></path><path d="M400 1156.8L512 1250L513 1165.8Z" fill="#1f1f1f" stroke="#1f1f1f"></path><path d="M0 1075.7L110 1142.8L87 1071.7Z" fill="#696969" stroke="#696969"></path><path d="M0 941.5L0 1075.7L87 1071.7Z" fill="#303030" stroke="#303030"></path><path d="M835 956.5L900 867.4L816 855.4Z" fill="#696969" stroke="#696969"></path><path d="M195 0L97 69.2L167 103.2Z" fill="#5f5f5f" stroke="#5f5f5f"></path><path d="M167 103.2L97 69.2L134 225.3Z" fill="#737373" stroke="#737373"></path><path d="M482 0L392 59.2L500 133.2Z" fill="#696969" stroke="#696969"></path><path d="M392 59.2L304 0L287 128.2Z" fill="#4b4b4b" stroke="#4b4b4b"></path><path d="M482 0L500 133.2L576 107.2Z" fill="#5f5f5f" stroke="#5f5f5f"></path><path d="M418 0L304 0L392 59.2Z" fill="#424242" stroke="#424242"></path><path d="M607 0L482 0L576 107.2Z" fill="#303030" stroke="#303030"></path><path d="M97 69.2L0 106.2L0 193.3Z" fill="#4b4b4b" stroke="#4b4b4b"></path><path d="M710 1082.7L831 1019.7L692 964.5Z" fill="#1f1f1f" stroke="#1f1f1f"></path><path d="M835 956.5L900 970.5L900 867.4Z" fill="#303030" stroke="#303030"></path><path d="M761 1170.8L831 1019.7L710 1082.7Z" fill="#696969" stroke="#696969"></path><path d="M900 387.6L900 288.5L766 344.6Z" fill="#272727" stroke="#272727"></path><path d="M304 0L195 0L287 128.2Z" fill="#171717" stroke="#171717"></path><path d="M97 69.2L0 0L0 106.2Z" fill="#4b4b4b" stroke="#4b4b4b"></path><path d="M778 112.2L688 213.3L795 215.3Z" fill="#272727" stroke="#272727"></path><path d="M778 112.2L716 79.2L688 213.3Z" fill="#737373" stroke="#737373"></path><path d="M513 1165.8L604 1250L601 1145.8Z" fill="#171717" stroke="#171717"></path><path d="M307 1250L282 1123.8L167 1250Z" fill="#555555" stroke="#555555"></path><path d="M601 1145.8L713 1148.8L611 1090.7Z" fill="#5f5f5f" stroke="#5f5f5f"></path><path d="M688 1250L713 1148.8L601 1145.8Z" fill="#272727" stroke="#272727"></path><path d="M167 1250L282 1123.8L180 1116.8Z" fill="#696969" stroke="#696969"></path><path d="M900 166.3L778 112.2L795 215.3Z" fill="#737373" stroke="#737373"></path><path d="M900 1036.7L900 970.5L831 1019.7Z" fill="#4b4b4b" stroke="#4b4b4b"></path><path d="M831 1019.7L900 970.5L835 956.5Z" fill="#171717" stroke="#171717"></path><path d="M716 79.2L607 0L576 107.2Z" fill="#737373" stroke="#737373"></path><path d="M689 0L607 0L716 79.2Z" fill="#424242" stroke="#424242"></path><path d="M374 1250L512 1250L400 1156.8Z" fill="#696969" stroke="#696969"></path><path d="M195 0L87 0L97 69.2Z" fill="#171717" stroke="#171717"></path><path d="M103 1250L167 1250L110 1142.8Z" fill="#5f5f5f" stroke="#5f5f5f"></path><path d="M110 1142.8L167 1250L180 1116.8Z" fill="#4b4b4b" stroke="#4b4b4b"></path><path d="M512 1250L604 1250L513 1165.8Z" fill="#393939" stroke="#393939"></path><path d="M761 1170.8L710 1082.7L713 1148.8Z" fill="#1f1f1f" stroke="#1f1f1f"></path><path d="M900 1171.8L900 1036.7L831 1019.7Z" fill="#171717" stroke="#171717"></path><path d="M0 1075.7L0 1190.8L110 1142.8Z" fill="#4b4b4b" stroke="#4b4b4b"></path><path d="M688 1250L761 1170.8L713 1148.8Z" fill="#303030" stroke="#303030"></path><path d="M783 0L689 0L716 79.2Z" fill="#737373" stroke="#737373"></path><path d="M0 1190.8L103 1250L110 1142.8Z" fill="#555555" stroke="#555555"></path><path d="M900 288.5L900 166.3L810 263.5Z" fill="#4b4b4b" stroke="#4b4b4b"></path><path d="M778 112.2L783 0L716 79.2Z" fill="#393939" stroke="#393939"></path><path d="M87 0L0 0L97 69.2Z" fill="#737373" stroke="#737373"></path><path d="M604 1250L688 1250L601 1145.8Z" fill="#4b4b4b" stroke="#4b4b4b"></path><path d="M761 1170.8L900 1171.8L831 1019.7Z" fill="#4b4b4b" stroke="#4b4b4b"></path><path d="M900 57.2L783 0L778 112.2Z" fill="#272727" stroke="#272727"></path><path d="M0 1190.8L0 1250L103 1250Z" fill="#303030" stroke="#303030"></path><path d="M900 166.3L900 57.2L778 112.2Z" fill="#303030" stroke="#303030"></path><path d="M805 1250L900 1171.8L761 1170.8Z" fill="#393939" stroke="#393939"></path><path d="M688 1250L805 1250L761 1170.8Z" fill="#393939" stroke="#393939"></path><path d="M900 57.2L900 0L783 0Z" fill="#696969" stroke="#696969"></path><path d="M805 1250L900 1250L900 1171.8Z" fill="#393939" stroke="#393939"></path></g></svg>