<svg id="visual" viewBox="0 0 900 1250" width="900" height="1250" xmlns="http://www.w3.org/2000/svg" xmlns:xlink="http://www.w3.org/1999/xlink" version="1.1"><path d="M668 1250L662.2 1220.2C656.3 1190.3 644.7 1130.7 625.5 1071.2C606.3 1011.7 579.7 952.3 576.7 892.8C573.7 833.3 594.3 773.7 599.5 714.2C604.7 654.7 594.3 595.3 596.8 535.8C599.3 476.3 614.7 416.7 609.2 357.2C603.7 297.7 577.3 238.3 575.7 178.8C574 119.3 597 59.7 608.5 29.8L620 0L900 0L900 29.8C900 59.7 900 119.3 900 178.8C900 238.3 900 297.7 900 357.2C900 416.7 900 476.3 900 535.8C900 595.3 900 654.7 900 714.2C900 773.7 900 833.3 900 892.8C900 952.3 900 1011.7 900 1071.2C900 1130.7 900 1190.3 900 1220.2L900 1250Z" fill="#f97316"></path><path d="M709 1250L699.7 1220.2C690.3 1190.3 671.7 1130.7 662.3 1071.2C653 1011.7 653 952.3 664.7 892.8C676.3 833.3 699.7 773.7 709 714.2C718.3 654.7 713.7 595.3 711.8 535.8C710 476.3 711 416.7 711.8 357.2C712.7 297.7 713.3 238.3 712.5 178.8C711.7 119.3 709.3 59.7 708.2 29.8L707 0L900 0L900 29.8C900 59.7 900 119.3 900 178.8C900 238.3 900 297.7 900 357.2C900 416.7 900 476.3 900 535.8C900 595.3 900 654.7 900 714.2C900 773.7 900 833.3 900 892.8C900 952.3 900 1011.7 900 1071.2C900 1130.7 900 1190.3 900 1220.2L900 1250Z" fill="#ca571a"></path><path d="M691 1250L696.8 1220.2C702.7 1190.3 714.3 1130.7 717.5 1071.2C720.7 1011.7 715.3 952.3 717.2 892.8C719 833.3 728 773.7 722.8 714.2C717.7 654.7 698.3 595.3 697.7 535.8C697 476.3 715 416.7 719.2 357.2C723.3 297.7 713.7 238.3 718.3 178.8C723 119.3 742 59.7 751.5 29.8L761 0L900 0L900 29.8C900 59.7 900 119.3 900 178.8C900 238.3 900 297.7 900 357.2C900 416.7 900 476.3 900 535.8C900 595.3 900 654.7 900 714.2C900 773.7 900 833.3 900 892.8C900 952.3 900 1011.7 900 1071.2C900 1130.7 900 1190.3 900 1220.2L900 1250Z" fill="#9c3e18"></path><path d="M728 1250L734.2 1220.2C740.3 1190.3 752.7 1130.7 760.5 1071.2C768.3 1011.7 771.7 952.3 779 892.8C786.3 833.3 797.7 773.7 800.3 714.2C803 654.7 797 595.3 797.5 535.8C798 476.3 805 416.7 801.7 357.2C798.3 297.7 784.7 238.3 779 178.8C773.3 119.3 775.7 59.7 776.8 29.8L778 0L900 0L900 29.8C900 59.7 900 119.3 900 178.8C900 238.3 900 297.7 900 357.2C900 416.7 900 476.3 900 535.8C900 595.3 900 654.7 900 714.2C900 773.7 900 833.3 900 892.8C900 952.3 900 1011.7 900 1071.2C900 1130.7 900 1190.3 900 1220.2L900 1250Z" fill="#6e2713"></path><path d="M834 1250L829.2 1220.2C824.3 1190.3 814.7 1130.7 812.7 1071.2C810.7 1011.7 816.3 952.3 820.5 892.8C824.7 833.3 827.3 773.7 832 714.2C836.7 654.7 843.3 595.3 848.3 535.8C853.3 476.3 856.7 416.7 857.8 357.2C859 297.7 858 238.3 849.7 178.8C841.3 119.3 825.7 59.7 817.8 29.8L810 0L900 0L900 29.8C900 59.7 900 119.3 900 178.8C900 238.3 900 297.7 900 357.2C900 416.7 900 476.3 900 535.8C900 595.3 900 654.7 900 714.2C900 773.7 900 833.3 900 892.8C900 952.3 900 1011.7 900 1071.2C900 1130.7 900 1190.3 900 1220.2L900 1250Z" fill="#431407"></path></svg>