<svg id="visual" viewBox="0 0 1250 900" width="1250" height="900" xmlns="http://www.w3.org/2000/svg" xmlns:xlink="http://www.w3.org/1999/xlink" version="1.1"><path d="M0 618L29.8 626.7C59.7 635.3 119.3 652.7 178.8 642.5C238.3 632.3 297.7 594.7 357.2 586.8C416.7 579 476.3 601 535.8 618.7C595.3 636.3 654.7 649.7 714.2 637.8C773.7 626 833.3 589 892.8 577.7C952.3 566.3 1011.7 580.7 1071.2 599.5C1130.7 618.3 1190.3 641.7 1220.2 653.3L1250 665L1250 901L1220.2 901C1190.3 901 1130.7 901 1071.2 901C1011.7 901 952.3 901 892.8 901C833.3 901 773.7 901 714.2 901C654.7 901 595.3 901 535.8 901C476.3 901 416.7 901 357.2 901C297.7 901 238.3 901 178.8 901C119.3 901 59.7 901 29.8 901L0 901Z" fill="#f97316"></path><path d="M0 709L29.8 704C59.7 699 119.3 689 178.8 679.8C238.3 670.7 297.7 662.3 357.2 662.3C416.7 662.3 476.3 670.7 535.8 662.8C595.3 655 654.7 631 714.2 630.2C773.7 629.3 833.3 651.7 892.8 659.5C952.3 667.3 1011.7 660.7 1071.2 653.8C1130.7 647 1190.3 640 1220.2 636.5L1250 633L1250 901L1220.2 901C1190.3 901 1130.7 901 1071.2 901C1011.7 901 952.3 901 892.8 901C833.3 901 773.7 901 714.2 901C654.7 901 595.3 901 535.8 901C476.3 901 416.7 901 357.2 901C297.7 901 238.3 901 178.8 901C119.3 901 59.7 901 29.8 901L0 901Z" fill="#ca571a"></path><path d="M0 724L29.8 716.7C59.7 709.3 119.3 694.7 178.8 687.5C238.3 680.3 297.7 680.7 357.2 694.7C416.7 708.7 476.3 736.3 535.8 732.5C595.3 728.7 654.7 693.3 714.2 676.3C773.7 659.3 833.3 660.7 892.8 668C952.3 675.3 1011.7 688.7 1071.2 701.8C1130.7 715 1190.3 728 1220.2 734.5L1250 741L1250 901L1220.2 901C1190.3 901 1130.7 901 1071.2 901C1011.7 901 952.3 901 892.8 901C833.3 901 773.7 901 714.2 901C654.7 901 595.3 901 535.8 901C476.3 901 416.7 901 357.2 901C297.7 901 238.3 901 178.8 901C119.3 901 59.7 901 29.8 901L0 901Z" fill="#9c3e18"></path><path d="M0 762L29.8 756C59.7 750 119.3 738 178.8 732.3C238.3 726.7 297.7 727.3 357.2 740C416.7 752.7 476.3 777.3 535.8 785.8C595.3 794.3 654.7 786.7 714.2 786.8C773.7 787 833.3 795 892.8 785.3C952.3 775.7 1011.7 748.3 1071.2 740.3C1130.7 732.3 1190.3 743.7 1220.2 749.3L1250 755L1250 901L1220.2 901C1190.3 901 1130.7 901 1071.2 901C1011.7 901 952.3 901 892.8 901C833.3 901 773.7 901 714.2 901C654.7 901 595.3 901 535.8 901C476.3 901 416.7 901 357.2 901C297.7 901 238.3 901 178.8 901C119.3 901 59.7 901 29.8 901L0 901Z" fill="#6e2713"></path><path d="M0 811L29.8 812.8C59.7 814.7 119.3 818.3 178.8 819C238.3 819.7 297.7 817.3 357.2 815.7C416.7 814 476.3 813 535.8 819.2C595.3 825.3 654.7 838.7 714.2 845.7C773.7 852.7 833.3 853.3 892.8 845C952.3 836.7 1011.7 819.3 1071.2 818C1130.7 816.7 1190.3 831.3 1220.2 838.7L1250 846L1250 901L1220.2 901C1190.3 901 1130.7 901 1071.2 901C1011.7 901 952.3 901 892.8 901C833.3 901 773.7 901 714.2 901C654.7 901 595.3 901 535.8 901C476.3 901 416.7 901 357.2 901C297.7 901 238.3 901 178.8 901C119.3 901 59.7 901 29.8 901L0 901Z" fill="#431407"></path></svg>